<svg width="20" height="20" viewBox="0 0 20 20" fill="none" xmlns="http://www.w3.org/2000/svg">
<path d="M10 0C4.45833 0 0 4.45833 0 10C0 15.5417 4.45833 20 10 20C15.5417 20 20 15.5417 20 10C20 4.45833 15.5417 0 10 0Z" fill="#F2595C"/>
<path d="M11.292 9.29166C11.042 9.20833 10.917 8.91666 11.0003 8.66666L12.167 5C12.2503 4.75 12.5003 4.62499 12.7503 4.70833C13.0003 4.79166 13.1253 5.08333 13.042 5.33333L11.8753 9C11.792 9.25 11.542 9.37499 11.292 9.29166Z" fill="white"/>
<path d="M14.1253 8.625H12.9024C12.5876 8.625 12.3082 8.8264 12.2087 9.125C12.0837 9.58333 11.6253 9.79167 11.2087 9.66667C10.6161 9.48891 10.0861 8.66666 9.46745 8.66666H8.9754C8.69491 8.66666 8.44913 8.85439 8.37533 9.125C8.25033 9.58333 7.79199 9.83333 7.37533 9.70833C6.74873 9.52035 6.18889 8.66666 5.5347 8.66666H5.20866C4.91699 8.66666 4.66699 8.79166 4.66699 9.08333C4.66699 9.37162 4.87054 9.61921 5.15691 9.66514C5.16359 9.66621 5.17039 9.66667 5.17715 9.66667C5.24423 9.66667 5.3023 9.7133 5.31677 9.7788L6.07467 13.2093C6.08064 13.2364 6.08366 13.264 6.08366 13.2917C6.08366 13.2917 6.08366 14.125 7.00032 14.1667C8.66699 14.1667 10.417 14.2083 12.0837 14.25C12.9521 14.25 13.0352 13.502 13.0415 13.4233C13.0419 13.4186 13.042 13.4143 13.042 13.4095C13.042 13.3866 13.0447 13.3637 13.0502 13.3415L13.8873 9.9131C13.9047 9.84182 13.9686 9.79167 14.042 9.79167C14.6054 9.79167 14.7376 8.68545 14.1771 8.62766C14.1601 8.62589 14.1428 8.625 14.1253 8.625ZM7.62532 13.0833C7.62532 13.25 7.50033 13.4167 7.33366 13.4167C7.16699 13.4167 7.04199 13.25 7.04199 13.0833L7.08366 10.9583C7.08366 10.7917 7.20866 10.625 7.37533 10.625C7.54199 10.625 7.66699 10.7917 7.66699 10.9583L7.62532 13.0833ZM9.16699 13.0833C9.16699 13.25 9.04199 13.4167 8.87532 13.4167C8.70866 13.4167 8.58366 13.25 8.58366 13.0833L8.62533 10.9583C8.62533 10.7917 8.75033 10.625 8.91699 10.625C9.08366 10.625 9.20866 10.7917 9.20866 10.9583L9.16699 13.0833ZM10.7087 13.125C10.7087 13.2917 10.5837 13.4583 10.417 13.4583C10.2503 13.4583 10.1253 13.2917 10.1253 13.125L10.167 11C10.167 10.8333 10.292 10.6667 10.4587 10.6667C10.6253 10.6667 10.7503 10.8333 10.7503 11L10.7087 13.125ZM12.2087 13.125C12.2087 13.2917 12.0837 13.4583 11.917 13.4583C11.7503 13.4583 11.6253 13.2917 11.6253 13.125L11.667 11C11.667 10.8333 11.792 10.6667 11.9587 10.6667C12.1253 10.6667 12.2503 10.8333 12.2503 11L12.2087 13.125Z" fill="white"/>
<path d="M7.458 9.33339C7.208 9.25005 7.083 9.00006 7.16634 8.75006L8.208 5.04172C8.29134 4.79172 8.54134 4.62505 8.79134 4.70838C9.04134 4.79172 9.16633 5.04172 9.083 5.29172L8.04133 9.00005C7.958 9.25005 7.708 9.41672 7.458 9.33339Z" fill="white"/>
</svg>
