<svg width="50" height="50" viewBox="0 0 50 50" fill="none" xmlns="http://www.w3.org/2000/svg">
<circle cx="25" cy="25" r="25" fill="#F2595C"/>
<path d="M25.034 9.45923C16.2592 9.45923 9.45898 15.8725 9.45898 24.5349C9.45898 29.0658 11.3207 32.9812 14.3511 35.6859C14.8744 36.1565 14.7666 36.4291 14.8556 39.3349C14.8626 39.5385 14.9193 39.7372 15.0207 39.9138C15.1222 40.0904 15.2653 40.2395 15.4376 40.3481C15.6099 40.4567 15.8061 40.5215 16.0092 40.5368C16.2122 40.5521 16.416 40.5175 16.6026 40.436C19.9181 38.9759 19.9608 38.8605 20.5228 39.0135C30.1285 41.6574 40.5401 35.5098 40.5401 24.5349C40.5401 15.8725 33.8094 9.45923 25.034 9.45923ZM34.3859 21.0607L29.8115 28.3031C29.6387 28.5754 29.4116 28.8092 29.1443 28.9896C28.877 29.1701 28.5754 29.2934 28.2582 29.3518C27.9411 29.4102 27.6153 29.4025 27.3012 29.3291C26.9872 29.2557 26.6917 29.1183 26.4333 28.9254L22.7938 26.2013C22.6311 26.0792 22.4332 26.0133 22.2298 26.0133C22.0264 26.0133 21.8285 26.0792 21.6658 26.2013L16.7549 29.9262C16.0994 30.4231 15.2409 29.6379 15.6827 28.9442L20.2572 21.7018C20.4298 21.4294 20.6569 21.1956 20.9242 21.0151C21.1915 20.8346 21.4932 20.7112 21.8103 20.6528C22.1275 20.5944 22.4534 20.6021 22.7674 20.6756C23.0815 20.749 23.3769 20.8865 23.6353 21.0795L27.2736 23.803C27.4363 23.925 27.6342 23.991 27.8376 23.991C28.0409 23.991 28.2388 23.925 28.4015 23.803L33.315 20.0819C33.9692 19.5818 34.8277 20.3664 34.3859 21.0607Z" fill="white"/>
</svg>
