<svg width="17" height="17" viewBox="0 0 17 17" fill="none" xmlns="http://www.w3.org/2000/svg">
<path d="M16.0971 8.49861C16.1 4.30243 12.6975 0.9 8.49854 0.9C4.30246 0.9 0.9 4.30246 0.9 8.49854C0.9 12.6946 4.30246 16.0971 8.49854 16.0971C12.6946 16.0971 16.097 12.6947 16.0971 8.49861ZM16.0971 8.49861L15.9971 8.49854H16.0971C16.0971 8.49856 16.0971 8.49859 16.0971 8.49861ZM15.1577 8.49854C15.1577 12.175 12.175 15.1577 8.49854 15.1577C4.82203 15.1577 1.83933 12.175 1.83933 8.49854C1.83933 4.82203 4.82203 1.83933 8.49854 1.83933C12.1779 1.83933 15.1577 4.822 15.1577 8.49854Z" fill="#F2595C" stroke="#F2595C" stroke-width="0.2"/>
<path d="M8.03509 9.21372L8.03514 9.21377L11.6285 11.5874L11.7005 11.518L11.7005 11.518C11.7005 11.518 11.7004 11.518 11.7004 11.5179L8.93185 8.64232V5.07364H8.93186L8.93184 5.07239C8.92825 4.78505 8.69781 4.55283 8.41104 4.55283C8.12541 4.55283 7.89023 4.78418 7.89023 5.07364V8.85213C7.89023 8.98536 7.94065 9.11564 8.03509 9.21372Z" fill="#F2595C" stroke="#F2595C" stroke-width="0.2"/>
</svg>
