<svg width="40" height="40" viewBox="0 0 40 40" fill="none" xmlns="http://www.w3.org/2000/svg">
<path d="M20 40C31.0457 40 40 31.0457 40 20C40 8.9543 31.0457 0 20 0C8.9543 0 0 8.9543 0 20C0 31.0457 8.9543 40 20 40Z" fill="#F2595C"/>
<path d="M24.3767 31.4737H15.6239C11.7236 31.4737 8.52637 28.2991 8.52637 24.3762V15.6234C8.52637 11.7232 11.701 8.52588 15.6239 8.52588H24.3994C28.2996 8.52588 31.4969 11.7005 31.4969 15.6234V24.3989C31.4742 28.2991 28.2996 31.4737 24.3767 31.4737ZM15.6239 11.0882C13.1295 11.0882 11.0887 13.1291 11.0887 15.6234V24.3989C11.0887 26.8932 13.1295 28.934 15.6239 28.934H24.3994C26.8937 28.934 28.9345 26.8932 28.9345 24.3989V15.6234C28.9345 13.1291 26.8937 11.0882 24.3994 11.0882H15.6239Z" fill="#F7F7F5"/>
<path d="M20 25.873C16.7573 25.873 14.127 23.2426 14.127 20C14.127 16.7573 16.7573 14.127 20 14.127C23.2426 14.127 25.873 16.7573 25.873 20C25.873 23.2426 23.2426 25.873 20 25.873ZM20 16.4399C18.0272 16.4399 16.4399 18.0272 16.4399 20C16.4399 21.9728 18.0272 23.5601 20 23.5601C21.9728 23.5601 23.5601 21.9728 23.5601 20C23.5601 18.0272 21.9728 16.4399 20 16.4399Z" fill="#F7F7F5"/>
<path d="M26.1677 14.784C26.7187 14.784 27.1654 14.3373 27.1654 13.7863C27.1654 13.2353 26.7187 12.7886 26.1677 12.7886C25.6166 12.7886 25.1699 13.2353 25.1699 13.7863C25.1699 14.3373 25.6166 14.784 26.1677 14.784Z" fill="#F7F7F5"/>
</svg>
