<svg width="50" height="50" viewBox="0 0 50 50" fill="none" xmlns="http://www.w3.org/2000/svg">
<circle cx="25" cy="25" r="24.5" stroke="#A3A1A1"/>
<path d="M39.0431 28.7013L39.0431 28.7013L39.041 28.7029L36.9225 30.3451C36.2204 30.8892 35.0479 30.8879 34.3574 30.3481L34.3554 30.3466L25.3105 23.3525L25.0043 23.1157L24.6983 23.3528L15.6617 30.3575C14.9596 30.9017 13.7871 30.9003 13.0966 30.3606L13.0946 30.359L10.9741 28.7193C10.639 28.4602 10.5065 28.1528 10.5063 27.8815C10.5062 27.6106 10.6379 27.3057 10.9711 27.0502L10.9731 27.0486L23.7219 17.1665L23.7219 17.1666L23.726 17.1633C24.4048 16.6257 25.576 16.6209 26.2796 17.165L39.04 27.0322C39.3751 27.2913 39.5076 27.5987 39.5078 27.87C39.5079 28.1409 39.3762 28.4458 39.0431 28.7013Z" fill="white" stroke="#A3A1A1"/>
</svg>
