<svg width="15" height="16" viewBox="0 0 15 16" fill="none" xmlns="http://www.w3.org/2000/svg">
<path d="M10.2356 14.6671H4.76504C2.6025 14.6671 0.829102 12.9058 0.829102 10.7311V5.26062C0.829102 3.09808 2.59041 1.32468 4.76504 1.32468H10.2497C12.4123 1.32468 14.1857 3.08599 14.1857 5.26062V10.7438C14.1723 12.9065 12.4112 14.6671 10.2356 14.6671ZM4.76504 1.92615C2.92994 1.92615 1.43058 3.42552 1.43058 5.26062V10.7453C1.43058 12.5804 2.92994 14.0798 4.76504 14.0798H10.2497C12.0848 14.0798 13.5842 12.5804 13.5842 10.7453V5.26062C13.5842 3.42552 12.0848 1.92615 10.2497 1.92615H4.76504Z" stroke="#595959"/>
<path d="M7.50022 11.1665C5.74972 11.1665 4.32959 9.74636 4.32959 7.99586C4.32959 6.24536 5.74972 4.82523 7.50022 4.82523C9.25073 4.82523 10.6709 6.24536 10.6709 7.99586C10.6709 9.74636 9.25073 11.1665 7.50022 11.1665ZM7.50022 5.2708C5.99109 5.2708 4.77517 6.48672 4.77517 7.99586C4.77517 9.505 5.99109 10.7209 7.50022 10.7209C9.00936 10.7209 10.2253 9.505 10.2253 7.99586C10.2253 6.48672 9.00936 5.2708 7.50022 5.2708Z" stroke="#595959"/>
<path d="M11.4786 4.11247C11.4786 4.18073 11.4233 4.23606 11.355 4.23606C11.2868 4.23606 11.2314 4.18073 11.2314 4.11247C11.2314 4.04422 11.2868 3.98889 11.355 3.98889C11.4233 3.98889 11.4786 4.04422 11.4786 4.11247Z" stroke="#595959"/>
</svg>
