<svg width="15" height="20" viewBox="0 0 15 20" fill="none" xmlns="http://www.w3.org/2000/svg">
<path d="M7.22311 19.2558C6.19597 17.7667 5.32425 16.525 4.58433 15.471C3.26557 13.5924 2.3655 12.3102 1.7504 11.2875C1.27786 10.5017 0.996147 9.90413 0.828598 9.33836C0.662413 8.77719 0.6 8.21849 0.6 7.5C0.6 3.68922 3.68922 0.6 7.5 0.6C11.3108 0.6 14.4 3.68922 14.4 7.5C14.4 8.21849 14.3376 8.77719 14.1714 9.33836C14.0039 9.90413 13.7221 10.5017 13.2496 11.2875C12.6345 12.3102 11.7344 13.5924 10.4157 15.471C9.67583 16.5249 8.80422 17.7665 7.77722 19.2553C7.64326 19.4483 7.35632 19.4482 7.22255 19.255L6.72922 19.5965L7.22311 19.2558ZM7.5 11.225C9.55727 11.225 11.225 9.55727 11.225 7.5C11.225 5.44273 9.55727 3.775 7.5 3.775C5.44273 3.775 3.775 5.44273 3.775 7.5C3.775 9.55727 5.44273 11.225 7.5 11.225Z" stroke="#F2595C" stroke-width="1.2"/>
</svg>
