<svg width="20" height="16" viewBox="0 0 20 16" fill="none" xmlns="http://www.w3.org/2000/svg">
<path d="M0.714286 6.85714H19.2857C19.4752 6.85714 19.6568 6.79694 19.7908 6.68977C19.9247 6.58261 20 6.43727 20 6.28571V5.14286C20 4.99131 19.9247 4.84596 19.7908 4.7388C19.6568 4.63163 19.4752 4.57143 19.2857 4.57143H0.714286C0.524845 4.57143 0.343164 4.63163 0.209209 4.7388C0.0752549 4.84596 0 4.99131 0 5.14286L0 6.28571C0 6.43727 0.0752549 6.58261 0.209209 6.68977C0.343164 6.79694 0.524845 6.85714 0.714286 6.85714ZM19.2857 13.7143H0.714286C0.524845 13.7143 0.343164 13.7745 0.209209 13.8817C0.0752549 13.9888 0 14.1342 0 14.2857L0 15.4286C0 15.5801 0.0752549 15.7255 0.209209 15.8326C0.343164 15.9398 0.524845 16 0.714286 16H19.2857C19.4752 16 19.6568 15.9398 19.7908 15.8326C19.9247 15.7255 20 15.5801 20 15.4286V14.2857C20 14.1342 19.9247 13.9888 19.7908 13.8817C19.6568 13.7745 19.4752 13.7143 19.2857 13.7143ZM19.4272 1.39414e-07H7.71563C7.64039 -4.68265e-05 7.56588 0.0117731 7.49637 0.0347839C7.42685 0.0577947 7.36368 0.0915448 7.31049 0.134103C7.25729 0.176662 7.2151 0.227194 7.18634 0.282808C7.15757 0.338422 7.1428 0.398028 7.14286 0.458215V1.8275C7.1428 1.88769 7.15757 1.94729 7.18634 2.00291C7.2151 2.05852 7.25729 2.10905 7.31049 2.15161C7.36368 2.19417 7.42685 2.22792 7.49637 2.25093C7.56588 2.27394 7.64039 2.28576 7.71563 2.28571H19.4272C19.5025 2.28576 19.577 2.27394 19.6465 2.25093C19.716 2.22792 19.7792 2.19417 19.8324 2.15161C19.8856 2.10905 19.9278 2.05852 19.9565 2.00291C19.9853 1.94729 20.0001 1.88769 20 1.8275V0.458215C20.0001 0.398028 19.9853 0.338422 19.9565 0.282808C19.9278 0.227194 19.8856 0.176662 19.8324 0.134103C19.7792 0.0915448 19.716 0.0577947 19.6465 0.0347839C19.577 0.0117731 19.5025 -4.68265e-05 19.4272 1.39414e-07ZM19.4272 9.14286H7.71563C7.64039 9.14281 7.56588 9.15463 7.49637 9.17764C7.42685 9.20065 7.36368 9.2344 7.31049 9.27696C7.25729 9.31952 7.2151 9.37005 7.18634 9.42566C7.15757 9.48128 7.1428 9.54088 7.14286 9.60107V10.9704C7.1428 11.0305 7.15757 11.0901 7.18634 11.1458C7.2151 11.2014 7.25729 11.2519 7.31049 11.2945C7.36368 11.337 7.42685 11.3708 7.49637 11.3938C7.56588 11.4168 7.64039 11.4286 7.71563 11.4286H19.4272C19.5025 11.4286 19.577 11.4168 19.6465 11.3938C19.716 11.3708 19.7792 11.337 19.8324 11.2945C19.8856 11.2519 19.9278 11.2014 19.9565 11.1458C19.9853 11.0901 20.0001 11.0305 20 10.9704V9.60107C20.0001 9.54088 19.9853 9.48128 19.9565 9.42566C19.9278 9.37005 19.8856 9.31952 19.8324 9.27696C19.7792 9.2344 19.716 9.20065 19.6465 9.17764C19.577 9.15463 19.5025 9.14281 19.4272 9.14286Z" fill="white"/>
</svg>
