<svg width="14" height="14" viewBox="0 0 14 14" fill="none" xmlns="http://www.w3.org/2000/svg">
<path d="M9.63366 6.9874L13.5653 3.05581C14.1449 2.47615 14.1449 1.54365 13.5653 0.963996L13.036 0.434743C12.4563 -0.144915 11.5239 -0.144915 10.9442 0.434743L6.9874 4.36634L3.05581 0.434743C2.47615 -0.144915 1.54365 -0.144915 0.963996 0.434743L0.434743 0.963996C-0.144915 1.54365 -0.144915 2.47615 0.434743 3.05581L4.36634 6.9874L0.434743 10.9442C-0.144915 11.5239 -0.144915 12.4563 0.434743 13.036L0.963996 13.5653C1.54365 14.1449 2.47615 14.1449 3.05581 13.5653L6.9874 9.63366L10.919 13.5653C11.4986 14.1449 12.4311 14.1449 13.0108 13.5653L13.5401 13.036C14.1197 12.4563 14.1197 11.5239 13.5401 10.9442L9.63366 6.9874Z" fill="white"/>
</svg>
