<svg width="28" height="25" viewBox="0 0 28 25" fill="none" xmlns="http://www.w3.org/2000/svg">
<path d="M12.4444 0.111084C5.54815 0.111084 0 5.65923 0 12.5555C0 19.4518 5.54815 25 12.4444 25C19.3407 25 24.8889 19.4518 24.8889 12.5555C24.8889 5.65923 19.3407 0.111084 12.4444 0.111084Z" fill="#F2595C"/>
<path d="M14.0522 11.6741C13.7411 11.5703 13.5855 11.2074 13.6892 10.8963L15.1411 6.33332C15.2448 6.02221 15.5559 5.86664 15.867 5.97035C16.1781 6.07405 16.3337 6.43702 16.23 6.74813L14.7781 11.3111C14.6744 11.6222 14.3633 11.7778 14.0522 11.6741Z" fill="white"/>
<path d="M17.578 10.8444H15.4002L15.1928 11.4666C15.0372 12.037 14.4669 12.2963 13.9484 12.1407C13.4298 11.9852 13.1706 11.4148 13.3261 10.8963H10.578L10.4224 11.4666C10.2669 12.037 9.69651 12.3481 9.17799 12.1926C8.65947 12.037 8.34836 11.4666 8.50391 10.8963H6.48169C6.11873 10.8963 5.80762 11.0518 5.80762 11.4148C5.80762 11.7778 6.06688 12.0889 6.42984 12.1407H6.58539L7.57058 16.6V16.6518C7.57058 16.6518 7.57058 17.6889 8.71132 17.7407C10.7854 17.7407 12.9632 17.7926 15.0372 17.8444C16.178 17.8444 16.2298 16.8074 16.2298 16.8074V16.7555L17.3187 12.2963H17.4743C17.8372 12.2963 18.1484 11.9852 18.1484 11.6222C18.2521 11.1555 17.941 10.8444 17.578 10.8444ZM9.4891 16.3926C9.4891 16.6 9.33354 16.8074 9.12614 16.8074C8.91873 16.8074 8.76317 16.6 8.76317 16.3926L8.81502 13.7481C8.81502 13.5407 8.97058 13.3333 9.17799 13.3333C9.3854 13.3333 9.54095 13.5407 9.54095 13.7481L9.4891 16.3926ZM11.4076 16.3926C11.4076 16.6 11.2521 16.8074 11.0447 16.8074C10.8372 16.8074 10.6817 16.6 10.6817 16.3926L10.7335 13.7481C10.7335 13.5407 10.8891 13.3333 11.0965 13.3333C11.3039 13.3333 11.4595 13.5407 11.4595 13.7481L11.4076 16.3926ZM13.3261 16.4444C13.3261 16.6518 13.1706 16.8592 12.9632 16.8592C12.7558 16.8592 12.6002 16.6518 12.6002 16.4444L12.6521 13.8C12.6521 13.5926 12.8076 13.3852 13.015 13.3852C13.2224 13.3852 13.378 13.5926 13.378 13.8L13.3261 16.4444ZM15.1928 16.4444C15.1928 16.6518 15.0372 16.8592 14.8298 16.8592C14.6224 16.8592 14.4669 16.6518 14.4669 16.4444L14.5187 13.8C14.5187 13.5926 14.6743 13.3852 14.8817 13.3852C15.0891 13.3852 15.2447 13.5926 15.2447 13.8L15.1928 16.4444Z" fill="white"/>
<path d="M9.28168 11.7259C8.97056 11.6222 8.81501 11.3111 8.91871 11L10.215 6.38515C10.3187 6.07404 10.6298 5.86663 10.9409 5.97034C11.252 6.07404 11.4076 6.38516 11.3039 6.69627L10.0076 11.3111C9.9039 11.6222 9.59279 11.8296 9.28168 11.7259Z" fill="white"/>
<circle cx="23.5" cy="4.5" r="4.25" fill="#F2595C" stroke="white" stroke-width="0.5"/>
<path d="M25.6429 3.96429H24.0357V2.35714C24.0357 2.15993 23.8758 2 23.6786 2H23.3214C23.1242 2 22.9643 2.15993 22.9643 2.35714V3.96429H21.3571C21.1599 3.96429 21 4.12422 21 4.32143V4.67857C21 4.87578 21.1599 5.03571 21.3571 5.03571H22.9643V6.64286C22.9643 6.84007 23.1242 7 23.3214 7H23.6786C23.8758 7 24.0357 6.84007 24.0357 6.64286V5.03571H25.6429C25.8401 5.03571 26 4.87578 26 4.67857V4.32143C26 4.12422 25.8401 3.96429 25.6429 3.96429Z" fill="white"/>
</svg>
