<svg width="20" height="20" viewBox="0 0 20 20" fill="none" xmlns="http://www.w3.org/2000/svg">
<path d="M10 0C4.45833 0 0 4.45833 0 10C0 15.5417 4.45833 20 10 20C15.5417 20 20 15.5417 20 10C20 4.45833 15.5417 0 10 0ZM14.1667 13.2917C14.1667 14.1667 13.4583 14.8333 12.625 14.8333H7.375C6.54167 14.8333 5.83333 14.1667 5.83333 13.2917V12.75C5.83333 11.0417 6.83333 9.58333 8.29167 8.95833C7.75 8.5 7.375 7.79167 7.375 7C7.375 5.58333 8.54167 4.41667 9.95833 4.41667C11.375 4.41667 12.5417 5.58333 12.5417 7C12.5417 7.79167 12.2083 8.5 11.625 8.95833C13.0833 9.625 14.0833 11.0833 14.0833 12.75V13.2917H14.1667Z" fill="#F2595C"/>
</svg>
