<svg width="39" height="39" viewBox="0 0 39 39" fill="none" xmlns="http://www.w3.org/2000/svg">
<circle r="19" transform="matrix(-1 0 0 1 19.5 19.5)" stroke="#595959"/>
<path d="M21.1462 29.1011L21.1462 29.1011L21.1478 29.0991L22.283 27.6633L22.6752 27.9734L22.283 27.6633C22.6146 27.2439 22.6199 26.5236 22.3005 26.1067L22.2989 26.1046L17.5827 19.8827L17.3489 19.5742L17.589 19.2705L22.4312 13.1462C22.7628 12.7268 22.7682 12.0064 22.4487 11.5895L22.4472 11.5875L21.3415 10.1288C21.1924 9.93213 21.0272 9.86799 20.8973 9.86667C20.7677 9.86534 20.6033 9.92569 20.4531 10.1177L20.4515 10.1197L13.6201 18.7599L13.6201 18.7599L13.6168 18.7639C13.292 19.1661 13.2805 19.8851 13.6042 20.3122L20.2578 29.09C20.4069 29.2867 20.5721 29.3508 20.702 29.3521C20.8316 29.3534 20.996 29.2931 21.1462 29.1011Z" stroke="#595959"/>
</svg>
