<svg width="40" height="40" viewBox="0 0 40 40" fill="none" xmlns="http://www.w3.org/2000/svg">
<circle cx="20" cy="20" r="19.5" stroke="#595959"/>
<path d="M18.302 29.8552L18.302 29.8552L18.3004 29.8532L17.1361 28.3806C16.7924 27.9459 16.7868 27.2006 17.118 26.7683L17.1196 26.7662L21.9568 20.3847L22.1906 20.0762L21.9505 19.7726L16.9841 13.4912C16.6404 13.0565 16.6348 12.3112 16.966 11.8789L16.9676 11.8768L18.1016 10.3808C18.2566 10.1763 18.4296 10.1083 18.5673 10.1068C18.7047 10.1054 18.8769 10.1696 19.0331 10.3692L19.0347 10.3712L26.0413 19.2329L26.0413 19.233L26.0446 19.237C26.3815 19.6541 26.3932 20.3981 26.0577 20.8407L19.2335 29.8437C19.0785 30.0481 18.9055 30.1162 18.7678 30.1176C18.6305 30.119 18.4582 30.0549 18.302 29.8552Z" stroke="#595959"/>
</svg>
