<svg width="54" height="30" viewBox="0 0 54 30" fill="none" xmlns="http://www.w3.org/2000/svg">
<g clip-path="url(#clip0)">
<path d="M5.79282 21.9181C5.65965 21.8535 5.52648 21.5948 5.65965 21.4009C5.72624 21.1423 5.99257 21.0776 6.12574 21.1423L11.4525 23.4052C11.7188 23.4698 11.7854 23.7285 11.7188 23.8578C11.6523 24.1164 11.3859 24.181 11.1862 24.1164L5.79282 21.9181ZM40.3502 17.6509C40.4833 17.7155 40.6831 17.9742 40.6165 18.1035C40.5499 18.3621 40.2836 18.4914 40.1504 18.4267L31.8273 15.9698C31.6942 15.9052 31.4944 15.6466 31.561 15.4526C31.6276 15.3233 31.8939 15.1293 32.0271 15.194L40.3502 17.6509ZM23.3711 10.8621C23.5043 10.9914 23.6375 11.25 23.4377 11.3793C23.3045 11.6379 23.0382 11.6379 22.905 11.444L17.3119 7.30605C17.1788 7.17674 17.0456 6.91812 17.2453 6.78881C17.3785 6.6595 17.6449 6.53019 17.778 6.72415L23.3711 10.8621Z" fill="#F2595C"/>
<path d="M34.5574 6.20685C34.6906 6.07754 34.9569 6.07754 35.0901 6.20685C35.2232 6.33616 35.2232 6.59478 35.0901 6.72409L30.8952 10.9267C30.7621 11.056 30.4957 11.056 30.3626 10.9267C30.2294 10.7974 30.2294 10.5387 30.3626 10.4094L34.5574 6.20685Z" fill="#F2595C"/>
<path d="M23.5045 17.5215C23.6377 17.3922 23.904 17.3922 24.0372 17.5215C24.1703 17.6509 24.1703 17.9741 24.0372 18.1034L18.6438 22.8879C18.5107 23.0172 18.2443 22.9526 18.1112 22.8233C17.978 22.694 18.0446 22.4353 18.1777 22.306L23.5045 17.5215Z" fill="#F2595C"/>
<path d="M15.248 20.8191C16.5131 20.8191 17.7116 21.3363 18.5772 22.1768C19.4428 23.0174 19.9755 24.1812 19.9755 25.4096C19.9755 26.6381 19.4428 27.8019 18.5772 28.6424C17.7116 29.4829 16.5131 30.0001 15.248 30.0001C13.9829 30.0001 12.7844 29.4829 11.9188 28.6424C11.0532 27.8019 10.5205 26.6381 10.5205 25.4096C10.5205 24.1812 11.0532 23.0174 11.9188 22.1768C12.851 21.401 13.9829 20.8191 15.248 20.8191ZM17.978 22.7587C17.2455 22.0475 16.3134 21.6596 15.248 21.6596C14.1161 21.6596 13.1839 22.0475 12.518 22.7587C11.7856 23.47 11.3861 24.3751 11.3861 25.4096C11.3861 26.5087 11.7856 27.4139 12.518 28.0605C13.2505 28.7717 14.1827 29.1596 15.248 29.1596C16.3799 29.1596 17.3121 28.7717 17.978 28.0605C18.7104 27.3493 19.1099 26.4441 19.1099 25.4096C19.1099 24.3751 18.7104 23.47 17.978 22.7587Z" fill="#F2595C"/>
<path d="M27.1001 8.85767C28.5649 8.85767 29.9632 9.43956 30.962 10.4094C31.8941 11.3792 32.56 12.6723 32.56 14.1594C32.56 15.5818 31.9607 16.9396 30.962 17.9094C29.9632 18.8146 28.6315 19.3965 27.1001 19.3965C25.6352 19.3965 24.2369 18.8146 23.2382 17.8447V17.7801C22.2394 16.8749 21.6401 15.5818 21.6401 14.0947C21.6401 12.6723 22.2394 11.3146 23.2382 10.3447C24.3035 9.43956 25.6352 8.85767 27.1001 8.85767ZM30.3627 10.9266C29.5637 10.1508 28.3652 9.63353 27.1666 9.63353C25.9015 9.63353 24.703 10.1508 23.8374 10.9266C23.0384 11.7671 22.5057 12.9309 22.5057 14.1594C22.5057 15.3878 23.0384 16.5516 23.8374 17.2628V17.3275C24.703 18.1034 25.9015 18.6206 27.1666 18.6206C28.4317 18.6206 29.6303 18.1034 30.3627 17.3275C31.2283 16.487 31.761 15.3232 31.761 14.0947C31.761 12.9309 31.2283 11.7671 30.3627 10.9266Z" fill="#F2595C"/>
<path d="M46.8092 12.9312C48.8067 12.9312 50.6045 13.7717 51.9362 15.0001C53.2679 16.2932 54.0669 18.0389 54.0669 20.0432C54.0669 21.9829 53.2679 23.7286 51.9362 25.0217C50.6045 26.3148 48.8067 27.0906 46.8092 27.0906C44.745 27.0906 42.9473 26.3148 41.6156 25.0217C40.2839 23.7286 39.4849 21.9829 39.4849 20.0432C39.4849 18.0389 40.3505 16.2932 41.6156 15.0001C42.9473 13.7717 44.745 12.9312 46.8092 12.9312ZM51.3369 15.5174C50.1384 14.4182 48.4738 13.707 46.7426 13.707C44.9448 13.707 43.2802 14.4829 42.0817 15.5174C40.9497 16.6812 40.2173 18.2975 40.2173 20.0432C40.2173 21.7243 40.9497 23.3406 42.0817 24.4398C43.2802 25.6036 44.9448 26.2501 46.7426 26.2501C48.4738 26.2501 50.1384 25.5389 51.3369 24.4398C52.5354 23.276 53.2679 21.6596 53.2679 20.0432C53.2679 18.2329 52.5354 16.6812 51.3369 15.5174Z" fill="#F2595C"/>
<path d="M36.5547 1.9397C37.3537 1.9397 38.1527 2.26297 38.6188 2.71556L38.6854 2.78021C39.1515 3.2328 39.4844 4.00866 39.4844 4.78452C39.4844 5.56039 39.1515 6.20694 38.6188 6.78884C38.0862 7.30608 37.3537 7.62935 36.5547 7.62935C35.7557 7.62935 35.0899 7.24142 34.4906 6.78884C33.9579 6.27159 33.625 5.56039 33.625 4.78452C33.6916 3.87935 33.9579 3.2328 34.5572 2.6509C35.0899 2.19832 35.7557 1.9397 36.5547 1.9397ZM38.0862 3.29746C37.6867 2.90952 37.154 2.71556 36.6213 2.71556C36.0886 2.71556 35.4894 2.97418 35.1564 3.29746C34.7569 3.62073 34.5572 4.13797 34.5572 4.71987C34.5572 5.23711 34.8235 5.81901 35.1564 6.14228C35.556 6.46556 36.0886 6.72418 36.6213 6.72418C37.154 6.72418 37.7532 6.46556 38.0862 6.14228C38.4857 5.75435 38.6854 5.23711 38.6854 4.71987C38.6854 4.13797 38.4857 3.68539 38.0862 3.29746Z" fill="#F2595C"/>
<path d="M14.0491 0C15.3808 0 16.5793 0.452586 17.4449 1.2931C18.2439 2.13362 18.7766 3.29741 18.7766 4.52586C18.7766 5.81897 18.2439 6.9181 17.4449 7.75862H17.3783C16.5793 8.53448 15.3808 9.05172 14.0491 9.05172C12.784 9.05172 11.5855 8.53448 10.7199 7.69397C9.92086 6.85345 9.38818 5.75431 9.38818 4.46121C9.38818 3.23276 9.92086 2.06897 10.7199 1.22845C11.6521 0.452586 12.8506 0 14.0491 0ZM16.8456 1.81034C16.2464 1.09914 15.181 0.711207 14.1157 0.711207C13.1169 0.711207 12.0516 1.09914 11.4523 1.81034C10.7199 2.52155 10.2538 3.42672 10.2538 4.46121C10.2538 5.56035 10.7199 6.46552 11.4523 7.11207C12.0516 7.82328 13.1169 8.27586 14.1157 8.27586C15.2476 8.27586 16.1798 7.82328 16.8456 7.11207C17.5115 6.46552 17.9776 5.56034 17.9776 4.52586C17.9776 3.42672 17.5115 2.52155 16.8456 1.81034Z" fill="#F2595C"/>
<path d="M3.32922 17.1982C4.26141 17.1982 5.127 17.5862 5.65968 18.1034C6.25894 18.6853 6.65845 19.5258 6.65845 20.3663C6.65845 21.2715 6.25894 22.0474 5.65968 22.6293C5.127 23.2758 4.26141 23.5991 3.32922 23.5991C2.46363 23.5991 1.59803 23.2758 0.998767 22.6939C0.399507 22.0474 0 21.3362 0 20.3663C0 19.5258 0.399507 18.6853 0.932182 18.1034C1.59803 17.5862 2.46363 17.1982 3.32922 17.1982ZM5.127 18.6207C4.66091 18.2327 3.99507 17.9741 3.32922 17.9741C2.59679 17.9741 1.99753 18.2974 1.59803 18.6853C1.13194 19.1379 0.799014 19.7844 0.799014 20.431C0.799014 21.1422 1.13194 21.7241 1.59803 22.1767C1.99753 22.6293 2.59679 22.8232 3.32922 22.8232C4.06165 22.8232 4.66091 22.5646 5.127 22.112C5.59309 21.6595 5.85943 21.0129 5.85943 20.3663C5.79285 19.7198 5.59309 19.0732 5.127 18.6207Z" fill="#F2595C"/>
</g>
<defs>
<clipPath id="clip0">
<rect width="54" height="30" fill="white"/>
</clipPath>
</defs>
</svg>
