<svg width="393" height="157" viewBox="0 0 393 157" fill="none" xmlns="http://www.w3.org/2000/svg">
<g clip-path="url(#clip0)">
<path d="M10.1079 64.1446C12.3712 64.1446 14.2061 62.3142 14.2061 60.0563C14.2061 57.7984 12.3712 55.968 10.1079 55.968C7.84447 55.968 6.00964 57.7984 6.00964 60.0563C6.00964 62.3142 7.84447 64.1446 10.1079 64.1446Z" fill="#E12F27"/>
<path d="M26.3214 49.7876C28.5847 49.7876 30.4196 47.9573 30.4196 45.6994C30.4196 43.4415 28.5847 41.6111 26.3214 41.6111C24.058 41.6111 22.2231 43.4415 22.2231 45.6994C22.2231 47.9573 24.058 49.7876 26.3214 49.7876Z" fill="#E12F27"/>
<path d="M10.6553 52.4226C12.9187 52.4226 14.7535 50.5923 14.7535 48.3344C14.7535 46.0765 12.9187 44.2461 10.6553 44.2461C8.39196 44.2461 6.55713 46.0765 6.55713 48.3344C6.55713 50.5923 8.39196 52.4226 10.6553 52.4226Z" fill="#E12F27"/>
<path d="M21.6758 37.9761C23.9392 37.9761 25.774 36.1457 25.774 33.8878C25.774 31.6299 23.9392 29.7996 21.6758 29.7996C19.4124 29.7996 17.5776 31.6299 17.5776 33.8878C17.5776 36.1457 19.4124 37.9761 21.6758 37.9761Z" fill="#E12F27"/>
<path d="M35.2479 125.836C34.7091 125.834 34.1752 125.938 33.6769 126.143C33.1787 126.348 32.7261 126.649 32.3451 127.029C31.9641 127.409 31.6623 127.86 31.4571 128.357C31.252 128.854 31.1475 129.387 31.1496 129.924C31.1587 130.325 31.2201 130.722 31.3322 131.106C30.6084 130.528 29.711 130.208 28.7836 130.199C27.9731 130.199 27.1807 130.439 26.5068 130.888C25.8328 131.337 25.3076 131.976 24.9974 132.723C24.6872 133.47 24.606 134.292 24.7642 135.085C24.9223 135.878 25.3126 136.607 25.8858 137.178C26.4589 137.75 27.1891 138.139 27.9841 138.297C28.7791 138.455 29.6031 138.374 30.352 138.065C31.1008 137.755 31.7409 137.231 32.1912 136.559C32.6415 135.887 32.8818 135.096 32.8818 134.288C32.8728 133.887 32.8114 133.49 32.6993 133.106C33.4231 133.684 34.3205 134.004 35.2479 134.013C36.3348 134.013 37.3772 133.582 38.1457 132.815C38.9143 132.049 39.3461 131.009 39.3461 129.924C39.3461 128.84 38.9143 127.8 38.1457 127.034C37.3772 126.267 36.3348 125.836 35.2479 125.836Z" fill="#E12F27"/>
<path d="M19.0343 79.4085C21.2977 79.4085 23.1325 77.5781 23.1325 75.3202C23.1325 73.0623 21.2977 71.2319 19.0343 71.2319C16.7709 71.2319 14.9361 73.0623 14.9361 75.3202C14.9361 77.5781 16.7709 79.4085 19.0343 79.4085Z" fill="#E12F27"/>
<path d="M23.4976 108.666C25.7609 108.666 27.5958 106.835 27.5958 104.577C27.5958 102.319 25.7609 100.489 23.4976 100.489C21.2342 100.489 19.3994 102.319 19.3994 104.577C19.3994 106.835 21.2342 108.666 23.4976 108.666Z" fill="#E12F27"/>
<path d="M15.3012 118.842C17.5645 118.842 19.3994 117.011 19.3994 114.753C19.3994 112.495 17.5645 110.665 15.3012 110.665C13.0378 110.665 11.2029 112.495 11.2029 114.753C11.2029 117.011 13.0378 118.842 15.3012 118.842Z" fill="#E12F27"/>
<path d="M4.09821 79.7728C6.36159 79.7728 8.19642 77.9424 8.19642 75.6845C8.19642 73.4266 6.36159 71.5962 4.09821 71.5962C1.83483 71.5962 0 73.4266 0 75.6845C0 77.9424 1.83483 79.7728 4.09821 79.7728Z" fill="#E12F27"/>
<path d="M8.19635 93.2193C10.4597 93.2193 12.2946 91.3889 12.2946 89.131C12.2946 86.8731 10.4597 85.0427 8.19635 85.0427C5.93298 85.0427 4.09814 86.8731 4.09814 89.131C4.09814 91.3889 5.93298 93.2193 8.19635 93.2193Z" fill="#E12F27"/>
<path d="M40.5308 93.7625C42.7942 93.7625 44.629 91.9321 44.629 89.6742C44.629 87.4163 42.7942 85.5859 40.5308 85.5859C38.2674 85.5859 36.4326 87.4163 36.4326 89.6742C36.4326 91.9321 38.2674 93.7625 40.5308 93.7625Z" fill="#E12F27"/>
<path d="M6.92212 105.485C9.1855 105.485 11.0203 103.654 11.0203 101.396C11.0203 99.1385 9.1855 97.3081 6.92212 97.3081C4.65874 97.3081 2.82391 99.1385 2.82391 101.396C2.82391 103.654 4.65874 105.485 6.92212 105.485Z" fill="#E12F27"/>
<path d="M124.138 41.8858C126.401 41.8858 128.236 40.0554 128.236 37.7975C128.236 35.5396 126.401 33.7092 124.138 33.7092C121.874 33.7092 120.039 35.5396 120.039 37.7975C120.039 40.0554 121.874 41.8858 124.138 41.8858Z" fill="#E12F27"/>
<path d="M133.154 29.6177C135.417 29.6177 137.252 27.7873 137.252 25.5294C137.252 23.2715 135.417 21.4412 133.154 21.4412C130.89 21.4412 129.055 23.2715 129.055 25.5294C129.055 27.7873 130.89 29.6177 133.154 29.6177Z" fill="#E12F27"/>
<path d="M122.316 85.5857C124.579 85.5857 126.414 83.7554 126.414 81.4975C126.414 79.2396 124.579 77.4092 122.316 77.4092C120.052 77.4092 118.218 79.2396 118.218 81.4975C118.218 83.7554 120.052 85.5857 122.316 85.5857Z" fill="#E12F27"/>
<path d="M142.717 93.4908C144.981 93.4908 146.815 91.6604 146.815 89.4025C146.815 87.1446 144.981 85.3142 142.717 85.3142C140.454 85.3142 138.619 87.1446 138.619 89.4025C138.619 91.6604 140.454 93.4908 142.717 93.4908Z" fill="#E12F27"/>
<path d="M148.276 52.4226C150.539 52.4226 152.374 50.5923 152.374 48.3344C152.374 46.0765 150.539 44.2461 148.276 44.2461C146.012 44.2461 144.177 46.0765 144.177 48.3344C144.177 50.5923 146.012 52.4226 148.276 52.4226Z" fill="#E12F27"/>
<path d="M109.112 13.9927C111.375 13.9927 113.21 12.1623 113.21 9.90444C113.21 7.64655 111.375 5.81616 109.112 5.81616C106.849 5.81616 105.014 7.64655 105.014 9.90444C105.014 12.1623 106.849 13.9927 109.112 13.9927Z" fill="#E12F27"/>
<path d="M71.4947 23.9866C73.7581 23.9866 75.5929 22.1562 75.5929 19.8983C75.5929 17.6404 73.7581 15.8101 71.4947 15.8101C69.2313 15.8101 67.3965 17.6404 67.3965 19.8983C67.3965 22.1562 69.2313 23.9866 71.4947 23.9866Z" fill="#E12F27"/>
<path d="M39.4357 20.4412C39.6228 20.4563 39.8107 20.4256 39.9832 20.3518C39.6231 20.7257 39.341 21.1673 39.1536 21.651C38.9662 22.1346 38.8771 22.6506 38.8915 23.1689C38.8915 23.9775 39.1318 24.768 39.5821 25.4403C40.0325 26.1126 40.6725 26.6366 41.4214 26.946C42.1702 27.2555 42.9942 27.3364 43.7892 27.1787C44.5842 27.0209 45.3144 26.6315 45.8876 26.0598C46.4607 25.488 46.851 24.7596 47.0091 23.9665C47.1673 23.1735 47.0861 22.3515 46.7759 21.6044C46.4657 20.8574 45.9405 20.2189 45.2665 19.7697C44.5926 19.3204 43.8002 19.0807 42.9897 19.0807C42.8026 19.0656 42.6147 19.0963 42.4421 19.17C42.8023 18.7962 43.0843 18.3545 43.2717 17.8709C43.4592 17.3873 43.5483 16.8713 43.5339 16.3529C43.5339 15.5443 43.2935 14.7539 42.8432 14.0816C42.3929 13.4093 41.7528 12.8853 41.004 12.5759C40.2551 12.2664 39.4311 12.1855 38.6362 12.3432C37.8412 12.501 37.111 12.8903 36.5378 13.4621C35.9647 14.0338 35.5743 14.7623 35.4162 15.5553C35.2581 16.3484 35.3392 17.1704 35.6494 17.9174C35.9596 18.6645 36.4849 19.303 37.1588 19.7522C37.8328 20.2014 38.6251 20.4412 39.4357 20.4412Z" fill="#E12F27"/>
<path d="M37.2489 66.2335C39.5123 66.2335 41.3471 64.4031 41.3471 62.1452C41.3471 59.8873 39.5123 58.0569 37.2489 58.0569C34.9855 58.0569 33.1507 59.8873 33.1507 62.1452C33.1507 64.4031 34.9855 66.2335 37.2489 66.2335Z" fill="#E12F27"/>
<path d="M100.275 29.6177C102.538 29.6177 104.373 27.7873 104.373 25.5294C104.373 23.2715 102.538 21.4412 100.275 21.4412C98.0117 21.4412 96.1769 23.2715 96.1769 25.5294C96.1769 27.7873 98.0117 29.6177 100.275 29.6177Z" fill="#E12F27"/>
<path d="M82.973 8.17657C85.2364 8.17657 87.0713 6.34618 87.0713 4.08828C87.0713 1.83039 85.2364 0 82.973 0C80.7097 0 78.8748 1.83039 78.8748 4.08828C78.8748 6.34618 80.7097 8.17657 82.973 8.17657Z" fill="#E12F27"/>
<path d="M74.9557 157C77.2191 157 79.0539 155.17 79.0539 152.912C79.0539 150.654 77.2191 148.823 74.9557 148.823C72.6923 148.823 70.8575 150.654 70.8575 152.912C70.8575 155.17 72.6923 157 74.9557 157Z" fill="#E12F27"/>
<path d="M125.777 113.208C128.04 113.208 129.875 111.377 129.875 109.119C129.875 106.861 128.04 105.031 125.777 105.031C123.513 105.031 121.679 106.861 121.679 109.119C121.679 111.377 123.513 113.208 125.777 113.208Z" fill="#E12F27"/>
<path d="M111.023 56.5108C113.287 56.5108 115.121 54.6804 115.121 52.4225C115.121 50.1646 113.287 48.3342 111.023 48.3342C108.76 48.3342 106.925 50.1646 106.925 52.4225C106.925 54.6804 108.76 56.5108 111.023 56.5108Z" fill="#E12F27"/>
<path d="M117.945 138.194C120.209 138.194 122.044 136.364 122.044 134.106C122.044 131.848 120.209 130.017 117.945 130.017C115.682 130.017 113.847 131.848 113.847 134.106C113.847 136.364 115.682 138.194 117.945 138.194Z" fill="#E12F27"/>
<path d="M103.829 153.094C106.092 153.094 107.927 151.263 107.927 149.006C107.927 146.748 106.092 144.917 103.829 144.917C101.566 144.917 99.7308 146.748 99.7308 149.006C99.7308 151.263 101.566 153.094 103.829 153.094Z" fill="#E12F27"/>
<path d="M103.736 130.017C106 130.017 107.834 128.187 107.834 125.929C107.834 123.671 106 121.841 103.736 121.841C101.473 121.841 99.6379 123.671 99.6379 125.929C99.6379 128.187 101.473 130.017 103.736 130.017Z" fill="#E12F27"/>
<path d="M48.7273 121.477C50.9907 121.477 52.8255 119.646 52.8255 117.388C52.8255 115.13 50.9907 113.3 48.7273 113.3C46.4639 113.3 44.6291 115.13 44.6291 117.388C44.6291 119.646 46.4639 121.477 48.7273 121.477Z" fill="#E12F27"/>
<path d="M100.185 106.302C102.449 106.302 104.284 104.472 104.284 102.214C104.284 99.9559 102.449 98.1255 100.185 98.1255C97.922 98.1255 96.0872 99.9559 96.0872 102.214C96.0872 104.472 97.922 106.302 100.185 106.302Z" fill="#E12F27"/>
<path d="M152.374 97.8539C154.637 97.8539 156.472 96.0235 156.472 93.7655C156.472 91.5076 154.637 89.6772 152.374 89.6772C150.11 89.6772 148.276 91.5076 148.276 93.7655C148.276 96.0235 150.11 97.8539 152.374 97.8539Z" fill="#E12F27"/>
<path d="M127.692 140.101C129.955 140.101 131.79 138.27 131.79 136.013C131.79 133.755 129.955 131.924 127.692 131.924C125.428 131.924 123.593 133.755 123.593 136.013C123.593 138.27 125.428 140.101 127.692 140.101Z" fill="#E12F27"/>
<path d="M144.542 113.207C143.95 113.232 143.365 113.355 142.813 113.572C142.436 113.059 141.942 112.643 141.372 112.359C140.802 112.074 140.172 111.929 139.535 111.936C138.448 111.936 137.406 112.367 136.637 113.134C135.868 113.9 135.437 114.94 135.437 116.025C135.437 117.109 135.868 118.149 136.637 118.915C137.406 119.682 138.448 120.113 139.535 120.113C140.127 120.089 140.712 119.966 141.264 119.749C141.641 120.262 142.135 120.677 142.705 120.962C143.275 121.246 143.905 121.391 144.542 121.384C145.629 121.384 146.672 120.953 147.44 120.187C148.209 119.42 148.64 118.38 148.64 117.296C148.64 116.211 148.209 115.172 147.44 114.405C146.672 113.638 145.629 113.207 144.542 113.207Z" fill="#E12F27"/>
<path d="M137.255 65.5084C139.519 65.5084 141.353 63.678 141.353 61.4201C141.353 59.1622 139.519 57.3318 137.255 57.3318C134.992 57.3318 133.157 59.1622 133.157 61.4201C133.157 63.678 134.992 65.5084 137.255 65.5084Z" fill="#E12F27"/>
<path d="M154.375 69.2328H154.192C154.727 68.4836 154.993 67.5772 154.95 66.6587C154.906 65.7402 154.555 64.8629 153.952 64.1675C153.349 63.472 152.53 62.9986 151.625 62.8232C150.72 62.6478 149.782 62.7805 148.962 63.2001C148.142 63.6196 147.487 64.3017 147.102 65.1371C146.716 65.9724 146.623 66.9126 146.838 67.8069C147.052 68.7012 147.561 69.4978 148.283 70.0691C149.005 70.6404 149.899 70.9532 150.821 70.9574H151.003C150.469 71.7067 150.202 72.6133 150.246 73.5319C150.289 74.4505 150.641 75.3279 151.244 76.0233C151.847 76.7188 152.667 77.192 153.572 77.3672C154.477 77.5424 155.415 77.4093 156.235 76.9894C157.055 76.5694 157.71 75.8869 158.095 75.0513C158.48 74.2156 158.572 73.2752 158.357 72.3809C158.142 71.4866 157.633 70.6902 156.91 70.1193C156.187 69.5485 155.293 69.2363 154.371 69.2328H154.375Z" fill="#E12F27"/>
<path d="M62.2961 70.3216C64.5595 70.3216 66.3943 68.4912 66.3943 66.2333C66.3943 63.9754 64.5595 62.145 62.2961 62.145C60.0327 62.145 58.1979 63.9754 58.1979 66.2333C58.1979 68.4912 60.0327 70.3216 62.2961 70.3216Z" fill="#E12F27"/>
<path d="M61.2939 144.282C63.5573 144.282 65.3921 142.451 65.3921 140.194C65.3921 137.936 63.5573 136.105 61.2939 136.105C59.0305 136.105 57.1957 137.936 57.1957 140.194C57.1957 142.451 59.0305 144.282 61.2939 144.282Z" fill="#E12F27"/>
<path d="M63.2983 13.0827C64.3541 13.069 65.3639 12.65 66.118 11.9127C66.8721 11.1755 67.3125 10.1767 67.3475 9.12401C67.3825 8.0713 67.0096 7.04559 66.3062 6.26008C65.6028 5.47457 64.623 4.98966 63.5704 4.90614C63.277 4.24403 62.8123 3.67169 62.2241 3.24779C61.6358 2.8239 60.9451 2.5637 60.2229 2.49388C59.5006 2.42406 58.7726 2.54714 58.1138 2.85049C57.4549 3.15383 56.8887 3.62654 56.4733 4.22013C56.0579 4.81372 55.8083 5.50684 55.7499 6.22842C55.6916 6.95 55.8267 7.67407 56.1414 8.32639C56.456 8.97872 56.9389 9.53582 57.5406 9.94058C58.1422 10.3453 58.841 10.5832 59.5652 10.6297C59.8725 11.3625 60.3918 11.9872 61.0568 12.4241C61.7217 12.861 62.5021 13.0903 63.2983 13.0827Z" fill="#E12F27"/>
<path d="M52.4604 43.4285C54.7238 43.4285 56.5586 41.5981 56.5586 39.3402C56.5586 37.0823 54.7238 35.252 52.4604 35.252C50.197 35.252 48.3622 37.0823 48.3622 39.3402C48.3622 41.5981 50.197 43.4285 52.4604 43.4285Z" fill="#E12F27"/>
<path d="M49.0889 150.823C51.3523 150.823 53.1871 148.992 53.1871 146.735C53.1871 144.477 51.3523 142.646 49.0889 142.646C46.8256 142.646 44.9907 144.477 44.9907 146.735C44.9907 148.992 46.8256 150.823 49.0889 150.823Z" fill="#E12F27"/>
<path d="M89.8022 147.188C92.0656 147.188 93.9004 145.358 93.9004 143.1C93.9004 140.842 92.0656 139.012 89.8022 139.012C87.5388 139.012 85.704 140.842 85.704 143.1C85.704 145.358 87.5388 147.188 89.8022 147.188Z" fill="#E12F27"/>
<path d="M92.5332 77.8629C94.7966 77.8629 96.6314 76.0325 96.6314 73.7746C96.6314 71.5167 94.7966 69.6863 92.5332 69.6863C90.2698 69.6863 88.435 71.5167 88.435 73.7746C88.435 76.0325 90.2698 77.8629 92.5332 77.8629Z" fill="#E12F27"/>
<path d="M82.4255 47.3345C84.6889 47.3345 86.5237 45.5041 86.5237 43.2462C86.5237 40.9883 84.6889 39.158 82.4255 39.158C80.1621 39.158 78.3273 40.9883 78.3273 43.2462C78.3273 45.5041 80.1621 47.3345 82.4255 47.3345Z" fill="#E12F27"/>
<path d="M76.9601 128.29C79.2235 128.29 81.0583 126.459 81.0583 124.201C81.0583 121.943 79.2235 120.113 76.9601 120.113C74.6967 120.113 72.8619 121.943 72.8619 124.201C72.8619 126.459 74.6967 128.29 76.9601 128.29Z" fill="#E12F27"/>
<path d="M69.1286 101.396C71.392 101.396 73.2268 99.5659 73.2268 97.308C73.2268 95.0501 71.392 93.2197 69.1286 93.2197C66.8652 93.2197 65.0304 95.0501 65.0304 97.308C65.0304 99.5659 66.8652 101.396 69.1286 101.396Z" fill="#E12F27"/>
<path d="M197.637 49.973C197.639 50.284 197.579 50.5923 197.461 50.8801C197.342 51.1678 197.168 51.4293 196.948 51.6492C196.727 51.8691 196.465 52.0431 196.177 52.1611C195.888 52.2791 195.579 52.3388 195.267 52.3366C194.799 52.3366 194.341 52.1979 193.951 51.9382C193.561 51.6785 193.258 51.3094 193.078 50.8775C192.899 50.4456 192.852 49.9703 192.943 49.5118C193.035 49.0534 193.261 48.6322 193.592 48.3017C193.923 47.9711 194.345 47.746 194.805 47.6548C195.265 47.5636 195.741 47.6104 196.174 47.7893C196.607 47.9682 196.977 48.2711 197.237 48.6598C197.498 49.0485 197.637 49.5055 197.637 49.973Z" fill="black"/>
<path d="M306.111 49.973C306.113 50.284 306.054 50.5923 305.935 50.8801C305.817 51.1678 305.643 51.4293 305.422 51.6492C305.202 51.8691 304.94 52.0431 304.651 52.1611C304.363 52.2791 304.054 52.3388 303.742 52.3366C303.273 52.3366 302.815 52.1979 302.426 51.9382C302.036 51.6785 301.732 51.3094 301.553 50.8775C301.374 50.4456 301.327 49.9703 301.418 49.5118C301.51 49.0534 301.735 48.6322 302.067 48.3017C302.398 47.9711 302.82 47.746 303.28 47.6548C303.739 47.5636 304.216 47.6104 304.649 47.7893C305.082 47.9682 305.452 48.2711 305.712 48.6598C305.972 49.0485 306.111 49.5055 306.111 49.973Z" fill="black"/>
<path d="M197.099 61.9665V94.494C197.099 94.9768 196.907 95.4399 196.564 95.7814C196.222 96.1228 195.758 96.3147 195.274 96.3147C194.79 96.3147 194.326 96.1228 193.983 95.7814C193.641 95.4399 193.449 94.9768 193.449 94.494V61.9665C193.449 61.4836 193.641 61.0205 193.983 60.679C194.326 60.3376 194.79 60.1458 195.274 60.1458C195.758 60.1458 196.222 60.3376 196.564 60.679C196.907 61.0205 197.099 61.4836 197.099 61.9665Z" fill="black"/>
<path d="M241.811 64.691C242.529 65.8676 242.907 67.2196 242.903 68.5972V94.5835C242.914 94.8451 242.861 95.1055 242.751 95.3429C242.64 95.5802 242.473 95.7875 242.265 95.9473C242.09 96.1252 241.874 96.2591 241.636 96.3379C241.399 96.4167 241.146 96.4383 240.898 96.4009C240.438 96.3399 240.016 96.1117 239.714 95.7599C239.411 95.4081 239.249 94.9574 239.259 94.4941V68.5972C239.284 67.6487 238.996 66.7183 238.439 65.949C237.937 65.0551 237.229 64.2926 236.374 63.7242C235.52 63.1557 234.542 62.7973 233.522 62.6783C233.245 62.663 232.968 62.6932 232.702 62.7677C228.275 63.8637 223.947 65.3218 219.76 67.1274C219.364 67.2676 219.021 67.5256 218.776 67.8665C218.532 68.2075 218.398 68.615 218.393 69.0342V94.4742C218.404 94.7358 218.352 94.9963 218.241 95.2336C218.13 95.4709 217.964 95.6783 217.756 95.8381C217.566 96.0231 217.335 96.1607 217.082 96.2395C216.829 96.3183 216.561 96.3362 216.299 96.2916C215.839 96.2306 215.417 96.0024 215.114 95.6506C214.812 95.2988 214.65 94.8482 214.66 94.3848V61.9434C214.649 61.6818 214.701 61.4214 214.812 61.184C214.923 60.9467 215.089 60.7394 215.297 60.5796C215.473 60.4017 215.688 60.2678 215.926 60.189C216.164 60.1102 216.417 60.0886 216.664 60.126C217.125 60.187 217.546 60.4152 217.849 60.767C218.151 61.1188 218.313 61.5695 218.303 62.0328V64.019C218.303 64.019 222.767 61.8375 225.133 61.0198C227.36 60.2212 229.642 59.584 231.962 59.1131C233.977 58.9385 235.997 59.3783 237.756 60.3743C239.515 61.3703 240.929 62.8756 241.811 64.691Z" fill="black"/>
<path d="M305.57 61.9665V94.494C305.57 94.9768 305.378 95.4399 305.036 95.7814C304.694 96.1228 304.229 96.3147 303.745 96.3147C303.261 96.3147 302.797 96.1228 302.455 95.7814C302.113 95.4399 301.92 94.9768 301.92 94.494V61.9665C301.92 61.4836 302.113 61.0205 302.455 60.679C302.797 60.3376 303.261 60.1458 303.745 60.1458C304.229 60.1458 304.694 60.3376 305.036 60.679C305.378 61.0205 305.57 61.4836 305.57 61.9665Z" fill="black"/>
<path d="M350.375 62.6915L337.079 95.219C336.952 95.5735 336.717 95.8789 336.405 96.0913C336.094 96.3036 335.723 96.412 335.346 96.4008C334.976 96.3867 334.617 96.2683 334.311 96.0591C334.005 95.85 333.764 95.5587 333.617 95.219L321.32 62.6915C321.232 62.4651 321.191 62.2235 321.199 61.981C321.206 61.7384 321.263 61.4999 321.365 61.2795C321.466 61.0591 321.612 60.8613 321.791 60.6979C321.971 60.5344 322.182 60.4086 322.411 60.3279C322.615 60.254 322.832 60.2235 323.048 60.2385C323.422 60.2405 323.786 60.3541 324.095 60.5648C324.403 60.7755 324.641 61.0735 324.777 61.4203L335.433 89.5848L347 61.3276C347.091 61.104 347.226 60.9009 347.397 60.7303C347.568 60.5597 347.772 60.4251 347.996 60.3345C348.227 60.2314 348.474 60.1697 348.726 60.1525C348.973 60.1368 349.22 60.1671 349.456 60.2418C349.68 60.3322 349.884 60.4668 350.055 60.6374C350.226 60.808 350.361 61.0112 350.452 61.235C350.563 61.718 350.537 62.2227 350.375 62.6915Z" fill="black"/>
<path d="M286.895 62.6915L273.598 95.219C273.472 95.5735 273.236 95.8789 272.925 96.0913C272.613 96.3036 272.242 96.412 271.866 96.4008C271.503 96.3975 271.151 96.282 270.857 96.0703C270.564 95.8586 270.343 95.5611 270.226 95.219L257.928 62.6915C257.841 62.4651 257.8 62.2235 257.807 61.981C257.815 61.7384 257.872 61.4999 257.973 61.2795C258.075 61.0591 258.22 60.8613 258.4 60.6979C258.58 60.5344 258.791 60.4086 259.02 60.3279C259.224 60.254 259.441 60.2235 259.657 60.2385C260.031 60.2405 260.395 60.3541 260.703 60.5648C261.012 60.7755 261.249 61.0735 261.386 61.4203L272.041 89.5848L283.609 61.3276C283.7 61.104 283.835 60.9009 284.006 60.7303C284.177 60.5597 284.381 60.4251 284.605 60.3345C284.836 60.2314 285.083 60.1697 285.335 60.1525C285.582 60.1368 285.829 60.1671 286.065 60.2418C286.289 60.3324 286.493 60.467 286.664 60.6376C286.835 60.8082 286.97 61.0113 287.06 61.235C287.096 61.7265 287.039 62.2203 286.895 62.6915Z" fill="black"/>
<path d="M379.886 59.4209H377.155C373.682 59.4374 370.356 60.821 367.9 63.2709C365.444 65.7208 364.057 69.0388 364.04 72.5034V84.1326C364.057 87.5972 365.444 90.9152 367.9 93.3651C370.356 95.815 373.682 97.1986 377.155 97.2151H379.886C383.359 97.1986 386.685 95.815 389.14 93.3651C391.596 90.9152 392.983 87.5972 393 84.1326V72.414C392.998 70.7008 392.656 69.0049 391.995 67.4236C391.335 65.8423 390.367 64.4069 389.149 63.1996C387.93 61.9923 386.484 61.0371 384.895 60.3886C383.305 59.7402 381.603 59.4113 379.886 59.4209ZM389.356 84.1326C389.357 85.3736 389.113 86.6025 388.637 87.7492C388.162 88.8958 387.464 89.9377 386.584 90.8151C385.705 91.6926 384.66 92.3885 383.511 92.863C382.362 93.3375 381.13 93.5813 379.886 93.5804H377.155C374.647 93.5665 372.246 92.5666 370.473 90.7978C368.7 89.029 367.698 86.634 367.684 84.1326V72.414C367.698 69.9126 368.7 67.5176 370.473 65.7488C372.246 63.98 374.647 62.9801 377.155 62.9662H379.886C382.393 62.9801 384.794 63.98 386.567 65.7488C388.34 67.5176 389.342 69.9126 389.356 72.414V84.1326Z" fill="black"/>
</g>
<defs>
<clipPath id="clip0">
<rect width="393" height="157" fill="white"/>
</clipPath>
</defs>
</svg>
