<svg width="37" height="37" viewBox="0 0 37 37" fill="none" xmlns="http://www.w3.org/2000/svg">
<g clip-path="url(#clip0)">
<path d="M33.6777 3.32226C31.4022 1.13776 28.4895 0 25.6224 0C22.7097 0 19.797 1.13776 17.567 3.32226C15.3825 5.59779 14.2448 8.46494 14.2448 11.3776C14.2448 14.2903 15.3825 17.2485 17.567 19.433C19.8426 21.6175 22.7097 22.7552 25.6224 22.7552C28.5351 22.7552 31.4477 21.6175 33.6777 19.433C35.8622 17.2485 37 14.2903 37 11.3776C37 8.51046 35.8622 5.59779 33.6777 3.32226ZM33.1771 3.82288C35.2706 5.91636 36.3173 8.64699 36.3173 11.3776C36.3173 14.1082 35.3161 16.8389 33.2226 18.9779C31.1292 21.0713 28.3985 22.1636 25.6224 22.1636C22.8918 22.1636 20.1611 21.0713 18.0221 18.9779C15.9287 16.8844 14.8364 14.1538 14.8364 11.3776C14.8819 8.64699 15.9287 5.91636 18.0221 3.77737C20.1156 1.7294 22.8462 0.682657 25.6224 0.682657C28.353 0.682657 31.0836 1.7294 33.1771 3.82288Z" fill="#F2595C"/>
<path d="M31.7209 5.2793C29.9915 3.59541 27.807 2.73071 25.6225 2.73071C23.438 2.73071 21.1625 3.59541 19.4786 5.2793V5.32481C17.7492 7.0087 16.93 9.1932 16.93 11.3777C16.93 13.5622 17.7947 15.8377 19.4786 17.5216C21.1625 19.2055 23.3925 20.0702 25.6225 20.0702C27.807 20.0702 30.0371 19.2055 31.7665 17.5216C33.4048 15.8377 34.2695 13.6077 34.2695 11.3777C34.2695 9.1932 33.4048 7.0087 31.7209 5.2793ZM25.6225 3.36786C27.6705 3.36786 29.7185 4.18705 31.2658 5.7344C32.8132 7.32727 33.6324 9.32973 33.6324 11.3777C33.6324 13.4257 32.8132 15.4736 31.2658 17.021C29.7185 18.5684 27.6705 19.3875 25.6225 19.3875C23.5746 19.3875 21.5266 18.5684 19.9792 17.021C18.4319 15.4736 17.6127 13.4257 17.6127 11.3777C17.6127 9.32973 18.4319 7.28176 19.9337 5.7344H19.9792C21.5266 4.18705 23.5746 3.36786 25.6225 3.36786Z" fill="#F2595C"/>
<path d="M10.6041 22.5732L0.819323 32.3124C0.273198 32.8585 0.000133514 33.5412 0.000133514 34.2693C0.000133514 34.952 0.273198 35.6802 0.819323 36.2263C1.36545 36.7724 2.04811 37.0455 2.77627 37.0455C3.45893 37.0455 4.18709 36.7724 4.73322 36.2263L14.4269 26.396C14.609 26.305 14.609 26.0775 14.4269 25.9864L11.0592 22.6187C10.9226 22.4366 10.6951 22.4366 10.6041 22.5732ZM1.31994 32.7675L10.8316 23.2558L13.7443 26.1685L4.23261 35.6802C3.86852 36.0898 3.3224 36.2718 2.77627 36.2718C2.23015 36.2718 1.68402 36.0898 1.31994 35.6802C0.955853 35.3161 0.728304 34.7699 0.728304 34.2238C0.728304 33.7232 0.910343 33.1771 1.31994 32.7675Z" fill="#F2595C"/>
<path d="M16.5659 17.8856L11.2411 23.2104C11.1501 23.3924 11.1501 23.5744 11.2411 23.711L13.2891 25.7589C13.3801 25.85 13.6077 25.85 13.7897 25.7589L19.1144 20.4342C19.2965 20.2522 19.2965 20.0701 19.1144 19.9336L19.0689 19.8881C18.8869 19.7971 18.7504 19.615 18.5228 19.4785C18.3408 19.2965 18.2042 19.1599 18.0222 18.9779C17.8402 18.7958 17.7036 18.6593 17.5216 18.4773C17.3395 18.2497 17.203 18.1132 17.112 17.9311C17.021 17.7491 16.7934 17.7036 16.6114 17.8401L16.5659 17.8856ZM11.9693 23.4834L16.7934 18.6593L17.0665 18.9324C17.2485 19.1144 17.385 19.2965 17.5671 19.4785C17.7491 19.6605 17.9312 19.7971 18.1132 19.9791L18.4318 20.2522L13.5167 25.0308L11.9693 23.4834Z" fill="#F2595C"/>
<path d="M28.2163 7.41815C28.4439 7.41815 28.5804 7.32713 28.5804 7.09958C28.6259 6.91754 28.5349 6.78101 28.3074 6.7355C28.3074 6.7355 23.8928 5.96182 21.2077 8.69245C21.1167 8.87449 21.1167 9.05653 21.2077 9.19306C21.2987 9.28408 21.5263 9.28408 21.7083 9.19306C24.2114 6.64448 28.2163 7.41815 28.2163 7.41815Z" fill="#F2595C"/>
</g>
<defs>
<clipPath id="clip0">
<rect width="37" height="37" fill="white" transform="matrix(-1 0 0 1 37 0)"/>
</clipPath>
</defs>
</svg>
