<svg width="44" height="45" viewBox="0 0 44 45" fill="none" xmlns="http://www.w3.org/2000/svg">
<g clip-path="url(#clip0)">
<path d="M21.9047 0C24.4818 0 26.8679 2.39107 28.4904 6.16897C30.113 9.85122 31.1629 14.9681 31.1629 20.6111C31.1629 24.7715 30.5902 28.6451 29.6835 31.8491C28.6813 35.2444 27.2497 37.8746 25.6271 39.5484C25.4362 39.644 25.2453 39.644 25.1021 39.5484C25.0544 39.5005 25.0544 39.4527 25.0544 39.4527C24.7681 38.831 24.3386 38.305 23.7659 37.9702C23.1932 37.6355 22.5729 37.3964 21.9047 37.3964C21.2366 37.3964 20.5685 37.6355 20.0436 37.9702C19.4709 38.305 19.0414 38.831 18.7551 39.4527C18.7074 39.644 18.4687 39.6918 18.3256 39.644C18.2779 39.644 18.2778 39.5962 18.2301 39.5962C16.5598 37.9702 15.1282 35.2922 14.1737 31.8969C13.2193 28.6929 12.6943 24.8193 12.6943 20.6589C12.6943 15.0159 13.6488 9.85122 15.2713 6.21679C16.9893 2.39107 19.3277 0 21.9047 0ZM27.9178 6.4559C26.3429 2.91711 24.2431 0.717322 21.9525 0.717322C19.6618 0.717322 17.5143 2.91711 15.9872 6.4559C14.3169 10.0425 13.3624 15.0638 13.3624 20.6111C13.3624 24.6759 13.8874 28.5016 14.8418 31.6578C15.7008 34.7184 16.9416 37.1573 18.3733 38.6397C18.7074 38.1137 19.1846 37.6355 19.6618 37.3007C20.3299 36.9182 21.0935 36.6791 21.9047 36.6791C22.716 36.6791 23.4796 36.9182 24.1477 37.3007C24.6726 37.6355 25.1021 38.1615 25.4362 38.6397C26.8679 37.1095 28.1087 34.6706 28.9677 31.6578C29.8744 28.5016 30.447 24.6759 30.447 20.6111C30.4948 15.0638 29.4926 10.0425 27.9178 6.4559Z" fill="#F2595C"/>
<path d="M39.7528 15.5419C38.9416 17.6939 37.2713 19.9893 34.9806 22.3326L34.9329 22.3804C32.7377 24.5802 29.8743 26.7321 26.5815 28.645C21.6661 31.4665 16.7507 33.188 12.7897 33.6184C8.68559 34.001 5.44047 33.188 4.15197 30.8926C2.86347 28.645 3.72247 25.3931 6.10859 22.0934C8.54243 18.8416 12.4079 15.4463 17.3233 12.6248V12.577C21.2843 10.3294 25.1975 8.79908 28.729 8.08176C32.4036 7.26879 35.5056 7.41226 37.5576 8.41651C37.7485 8.51215 37.8439 8.70344 37.7485 8.8469C37.7485 8.89472 37.7008 8.94255 37.7008 8.94255C37.319 9.2773 36.9849 9.65987 36.7941 10.1381C36.5554 10.5685 36.46 11.0945 36.46 11.6205C36.46 12.5292 36.7941 13.2943 37.319 13.916C37.8917 14.5377 38.6552 14.9681 39.5142 15.0637C39.7528 15.1115 39.8483 15.3028 39.8483 15.4463L39.7528 15.5419ZM34.4557 21.8543C36.6032 19.7024 38.1303 17.5982 38.9416 15.6376C38.0826 15.4463 37.319 15.0159 36.7463 14.3464C36.1259 13.629 35.6964 12.6726 35.6964 11.5727C35.6964 10.951 35.8873 10.3772 36.0782 9.80333C36.3168 9.42076 36.5077 9.08601 36.7941 8.79908C34.8374 7.98612 32.0695 7.98612 28.8244 8.70344C25.3884 9.42076 21.4752 10.9032 17.6097 13.1508C12.8374 15.9245 8.97193 19.3198 6.63353 22.476C4.39058 25.6322 3.53158 28.5015 4.67692 30.5578H4.72464C5.86997 32.6142 8.78104 33.3315 12.5988 32.8533C16.5598 32.4707 21.3797 30.797 26.1997 28.0711V28.0233C29.4448 26.1583 32.2604 24.0063 34.4557 21.8543Z" fill="#F2595C"/>
<path d="M39.7053 30.9406C38.4168 33.1404 35.2671 34.0012 31.1153 33.6186C27.1066 33.1882 22.1435 31.4666 17.3235 28.6452C13.8875 26.6845 10.881 24.3412 8.63804 22.0458C6.25192 19.6069 4.58164 17.168 3.91353 14.9682C3.86581 14.777 3.96125 14.5857 4.15214 14.5378C4.19986 14.5378 4.19986 14.5378 4.24758 14.5378C5.15431 14.5378 6.01331 14.1553 6.6337 13.4858C7.25409 12.8641 7.63587 12.0033 7.63587 11.0469C7.63587 10.6643 7.54043 10.1861 7.39726 9.80352C7.20637 9.42095 7.01548 8.99055 6.72915 8.75145C6.53826 8.56016 6.6337 8.36888 6.72915 8.22541C6.77687 8.22541 6.77687 8.17759 6.82459 8.17759C9.01982 7.3168 12.074 7.36462 15.5578 8.17759C18.9938 8.89491 22.7639 10.4252 26.5339 12.625C31.4493 15.4465 35.3148 18.8418 37.7009 22.0936C40.1825 25.4411 41.0415 28.6452 39.753 30.8928L39.7053 30.9406ZM31.163 32.8535C34.9808 33.2839 37.9396 32.5665 39.1326 30.558C40.3257 28.5974 39.4667 25.6324 37.176 22.4762C34.8376 19.32 31.0198 15.9247 26.1999 13.151C22.4775 10.9991 18.7552 9.56441 15.4623 8.79927C12.3127 8.08195 9.54476 7.9863 7.58815 8.60798C7.77904 8.89491 7.9222 9.18184 8.01765 9.51659C8.20854 9.94698 8.30398 10.473 8.30398 10.9991C8.30398 12.1946 7.87448 13.1988 7.11093 13.9162C6.49053 14.5857 5.63153 14.9682 4.67709 15.1595C5.39292 17.1202 6.92004 19.32 9.06754 21.5198C11.3105 23.7674 14.2693 26.015 17.6576 27.9757C22.4298 30.7971 27.2975 32.4709 31.163 32.8535Z" fill="#F2595C"/>
<path d="M39.8481 7.46021C41.0412 7.46021 42.0434 7.8906 42.7592 8.65574C43.5705 9.37306 44 10.473 44 11.5729C44 12.7684 43.5705 13.7726 42.7592 14.49C42.0434 15.3029 41.0412 15.7811 39.8481 15.7811C38.7028 15.7811 37.6529 15.3507 36.9371 14.5378C36.2212 13.8205 35.6963 12.7684 35.6963 11.6207C35.6963 10.473 36.2212 9.42089 36.9371 8.70356C37.7006 7.8906 38.7028 7.46021 39.8481 7.46021ZM42.3297 9.13396C41.7093 8.51228 40.8026 8.12971 39.8481 8.12971C38.8937 8.12971 38.0347 8.51228 37.4143 9.13396C36.7939 9.75564 36.4121 10.6164 36.4121 11.5729C36.4121 12.5293 36.7939 13.4379 37.4143 14.0596C38.0347 14.6812 38.8937 15.0638 39.8481 15.0638C40.8026 15.0638 41.7093 14.6812 42.3297 14.0596C42.9501 13.4379 43.3319 12.5293 43.3319 11.5729C43.3319 10.6164 42.9501 9.75564 42.3297 9.13396Z" fill="#F2595C"/>
<path d="M4.10412 6.88623C5.29718 6.88623 6.29935 7.31662 7.11063 8.08177C7.82646 8.89473 8.30369 9.89898 8.30369 10.9989C8.30369 12.1944 7.87419 13.1987 7.11063 14.0116H7.06291C6.34707 14.7289 5.29718 15.2072 4.15184 15.2072C3.00651 15.2072 2.00434 14.7768 1.24078 14.0116C0.429501 13.1987 0 12.1944 0 10.9989C0 9.85116 0.429501 8.84691 1.19306 8.08177C1.95662 7.36445 3.00651 6.88623 4.10412 6.88623ZM6.58568 8.6078C5.96529 7.98612 5.05857 7.60355 4.10412 7.60355C3.14967 7.60355 2.29067 7.98612 1.67028 8.6078C1.04989 9.22948 0.668113 10.0424 0.668113 10.9989C0.668113 11.9553 1.04989 12.8639 1.67028 13.4856C2.29067 14.1073 3.14967 14.4898 4.10412 14.4898C5.05857 14.4898 5.96529 14.1073 6.58568 13.4856C7.20607 12.8639 7.58785 11.9553 7.58785 10.9989C7.58785 10.0424 7.20607 9.22948 6.58568 8.6078Z" fill="#F2595C"/>
<path d="M21.9043 36.7268C23.0496 36.7268 24.0995 37.1572 24.8153 37.9223C25.5312 38.7353 26.0561 39.7396 26.0561 40.8394C26.0561 42.035 25.5312 43.0392 24.8153 43.8522C24.0995 44.5695 23.0019 45.0477 21.9043 45.0477C20.7112 45.0477 19.7091 44.6173 18.9932 43.8522C18.1819 43.0392 17.7524 42.035 17.7524 40.8394C17.7524 39.6917 18.1819 38.6875 18.9932 37.9223C19.7091 37.1572 20.8067 36.7268 21.9043 36.7268ZM24.3381 38.4006C23.7177 37.7789 22.8587 37.3963 21.9043 37.3963C20.9498 37.3963 20.0908 37.7789 19.4704 38.4006H19.4227C18.8023 39.0222 18.4206 39.9308 18.4206 40.8394C18.4206 41.7959 18.8023 42.7045 19.4227 43.3262C20.0431 43.9478 20.9498 44.3304 21.9043 44.3304C22.8587 44.3304 23.7177 43.9478 24.3381 43.3262C24.9585 42.7045 25.3403 41.7959 25.3403 40.8394C25.388 39.9308 24.9585 39.0222 24.3381 38.4006Z" fill="#F2595C"/>
</g>
<defs>
<clipPath id="clip0">
<rect width="44" height="45" fill="white"/>
</clipPath>
</defs>
</svg>
