<svg width="23" height="39" viewBox="0 0 23 39" fill="none" xmlns="http://www.w3.org/2000/svg">
<g clip-path="url(#clip0)">
<path d="M14.8343 16.349C17.1933 17.034 19.2347 18.4954 20.6864 20.4591C22.1381 22.4228 23 24.8431 23 27.4005C23 30.5972 21.7298 33.4743 19.643 35.6206C17.5562 37.7213 14.6982 39 11.568 39C8.34714 39 5.53452 37.7213 3.40237 35.6206C1.27022 33.4743 0 30.5972 0 27.4005C0 26.7155 0.0453649 26.0305 0.18146 25.3455C0.362919 24.7061 0.499014 24.0668 0.725838 23.3818C1.36095 21.6464 2.40434 20.0937 3.71992 18.9064C4.94477 17.719 6.48718 16.8513 8.16568 16.3033V2.74008C8.16568 2.55741 8.34714 2.42041 8.48323 2.42041H14.5168C14.6982 2.42041 14.8343 2.60308 14.8343 2.74008V16.349ZM20.142 20.8244C18.7357 18.9977 16.785 17.582 14.4714 16.9427C14.2899 16.897 14.1992 16.76 14.1992 16.623V3.05975H8.80079V16.5773C8.80079 16.6687 8.75542 16.8513 8.57396 16.897C6.89546 17.308 5.39842 18.1757 4.12821 19.363C2.90335 20.5504 1.95069 22.0117 1.36095 23.6101C1.13412 24.2038 0.998028 24.8431 0.816568 25.4825C0.725838 26.0762 0.635108 26.7155 0.635108 27.3548C0.635108 30.3689 1.85996 33.1089 3.85602 35.0726C5.80671 37.082 8.5286 38.2694 11.5227 38.2694C14.4714 38.2694 17.1933 37.082 19.1893 35.0726C21.14 33.1089 22.3649 30.3689 22.3649 27.3548C22.3649 24.9345 21.503 22.6511 20.142 20.8244Z" fill="#F2595C"/>
<path d="M22.2289 24.3865C22.4104 24.3409 22.5465 24.3865 22.5918 24.6149C22.6826 24.7975 22.5918 24.9345 22.4104 24.9802C21.7753 25.2085 21.1402 25.4825 20.4597 25.8022H20.4143C19.8246 26.1219 19.1895 26.4872 18.4636 26.9896C17.2388 27.8116 15.3334 27.3549 13.0652 26.8982C10.3887 26.2589 7.1224 25.4825 3.99222 26.6699C3.35711 26.8982 2.76737 26.9896 2.13226 27.0352C1.49715 27.0809 0.862044 27.0352 0.2723 26.9439C0.0454756 26.9439 -0.0452541 26.7156 0.000110754 26.5786C0.000110754 26.3959 0.226935 26.3046 0.36303 26.3046C0.907409 26.3959 1.49715 26.4872 2.13226 26.3959C2.67664 26.3502 3.22102 26.2132 3.81076 26.0305C7.07703 24.8432 10.434 25.6195 13.2467 26.2589C15.3334 26.7612 17.1027 27.1266 18.1461 26.4872C18.8265 25.9849 19.5524 25.6195 20.1875 25.2999V25.2542C20.9133 24.8889 21.5938 24.6149 22.2289 24.3865Z" fill="#F2595C"/>
<path d="M5.94304 0H17.0121C17.1935 0 17.3296 0.18267 17.3296 0.36534V2.74005C17.3296 2.92272 17.1482 3.05972 17.0121 3.05972H5.94304C5.76158 3.05972 5.62549 2.87705 5.62549 2.74005V0.36534C5.62549 0.18267 5.80695 0 5.94304 0ZM16.7399 0.685012H6.30596V2.42037H16.6945V0.685012H16.7399Z" fill="#F2595C"/>
<path d="M5.85206 28.1768C6.39644 28.1768 6.85008 28.4051 7.25837 28.7704C7.57592 29.0901 7.80275 29.6381 7.80275 30.1861C7.80275 30.7341 7.57592 31.1908 7.25837 31.5561L7.213 31.6018C6.89545 31.9215 6.39644 32.1498 5.85206 32.1498C5.30768 32.1498 4.85403 31.9215 4.44575 31.5561C4.12819 31.2365 3.90137 30.7341 3.90137 30.1861C3.90137 29.6381 4.12819 29.0901 4.44575 28.7704L4.49111 28.7248C4.80866 28.3594 5.30768 28.1768 5.85206 28.1768ZM6.75935 29.2271C6.53253 28.9531 6.21498 28.8618 5.85206 28.8618C5.5345 28.8618 5.21695 28.9531 4.94476 29.1814V29.2271C4.71793 29.4554 4.58184 29.7751 4.58184 30.1405C4.58184 30.4601 4.7633 30.7798 4.94476 31.0081C5.17158 31.2821 5.48914 31.3735 5.85206 31.3735C6.21498 31.3735 6.48717 31.2821 6.75935 31.0538V31.0081C6.98618 30.7798 7.12227 30.4601 7.12227 30.1405C7.12227 29.7751 6.98618 29.4554 6.75935 29.2271Z" fill="#F2595C"/>
<path d="M17.2388 29.0901C17.7832 29.0901 18.3275 29.3184 18.6451 29.6381C19.008 30.0034 19.2348 30.5058 19.2348 31.0538C19.2348 31.6018 19.008 32.0585 18.6451 32.4695C18.3275 32.7892 17.7832 33.0175 17.2388 33.0175C16.6944 33.0175 16.2407 32.7892 15.8778 32.4695C15.5149 32.1041 15.2881 31.6018 15.2881 31.0538C15.2881 30.5058 15.5149 30.0491 15.8778 29.6381C16.2861 29.2728 16.7851 29.0901 17.2388 29.0901ZM18.1461 30.0948C17.9193 29.8664 17.6017 29.7294 17.2388 29.7294C16.9212 29.7294 16.6037 29.9121 16.3768 30.0948H16.3315C16.1047 30.3231 15.9686 30.6428 15.9686 31.0081C15.9686 31.3735 16.15 31.6931 16.3315 31.9215C16.6037 32.1498 16.9212 32.2868 17.2388 32.2868C17.6017 32.2868 17.9193 32.1041 18.1461 31.9215C18.4183 31.6931 18.509 31.3735 18.509 31.0081C18.5544 30.6428 18.4183 30.3231 18.1461 30.0948Z" fill="#F2595C"/>
<path d="M11.9312 32.6523C12.4755 32.6523 12.9292 32.8807 13.3375 33.246C13.655 33.5657 13.8818 34.068 13.8818 34.616C13.8818 35.1641 13.655 35.6207 13.3375 36.0317C12.9745 36.3971 12.4755 36.6254 11.9312 36.6254C11.3868 36.6254 10.9331 36.3971 10.5248 36.0317C10.2073 35.6664 9.98047 35.1641 9.98047 34.616C9.98047 34.068 10.2073 33.6114 10.5248 33.246C10.9331 32.835 11.4321 32.6523 11.9312 32.6523ZM12.8385 33.657C12.6116 33.4287 12.2941 33.2917 11.9312 33.2917C11.6136 33.2917 11.296 33.4744 11.0239 33.657C10.797 33.931 10.6609 34.2507 10.6609 34.5704C10.6609 34.9357 10.8424 35.2554 11.0239 35.4837C11.296 35.7577 11.6136 35.8491 11.9312 35.8491C12.2941 35.8491 12.6116 35.7577 12.8385 35.4837C13.0653 35.2554 13.2014 34.9357 13.2014 34.5704C13.2467 34.2507 13.0653 33.931 12.8385 33.657Z" fill="#F2595C"/>
</g>
<defs>
<clipPath id="clip0">
<rect width="23" height="39" fill="white"/>
</clipPath>
</defs>
</svg>
